<?xml version="1.0" encoding="utf-8"?>
<!-- Generator: Adobe Illustrator 21.0.2, SVG Export Plug-In . SVG Version: 6.00 Build 0)  -->
<svg version="1.1" id="_x31_4054fca-329c-46a4-8e1a-1fe02bc847c9"
	 xmlns="http://www.w3.org/2000/svg" xmlns:xlink="http://www.w3.org/1999/xlink" x="0px" y="0px" viewBox="0 0 447.2 215.4"
	 style="enable-background:new 0 0 447.2 215.4;" xml:space="preserve">
<style type="text/css">
	.st0{fill:#1C1C1C;}
</style>
<title>IMMerseLogo</title>
<path class="st0" d="M156.7,111.9l141.1,102.5c1.8,1.3,4.3,1.3,6.1,0L445,111.9c2.3-1.7,2.8-4.9,1.2-7.3c-0.3-0.4-0.7-0.8-1.2-1.2
	L303.9,1c-1.8-1.3-4.3-1.3-6.1,0L275,17.6c-1.8,1.3-4.3,1.3-6.1,0L250.2,4.1c-2.3-1.7-5.6-1.2-7.3,1.1c0,0,0,0,0,0l0,0
	c-1.7,2.3-1.2,5.6,1.1,7.3c0,0,0,0,0,0l125.3,91c2.3,1.7,2.8,4.9,1.2,7.3c-0.3,0.4-0.7,0.8-1.2,1.2l-94.4,68.5
	c-1.8,1.3-4.3,1.3-6.1,0l-30.6-22.2c-2.3-1.7-2.8-4.9-1.2-7.3c0.3-0.4,0.7-0.8,1.2-1.2l52.2-37.9c2.3-1.7,2.8-4.9,1.2-7.3
	c-0.3-0.4-0.7-0.8-1.2-1.2l-63.8-46.4l0,0L149.4,1c-1.8-1.3-4.3-1.3-6.1,0L2.2,103.5c-2.3,1.7-2.8,4.9-1.2,7.3
	c0.3,0.4,0.7,0.8,1.2,1.2l141.1,102.5c1.8,1.3,4.3,1.3,6.1,0l22.9-16.6c1.8-1.3,4.3-1.3,6.1,0l18.6,13.5c2.3,1.7,5.6,1.2,7.3-1.1
	c0,0,0,0,0,0l0,0c1.7-2.3,1.2-5.6-1.1-7.3c0,0,0,0,0,0l-125.3-91c-2.3-1.7-2.8-4.9-1.2-7.3c0.3-0.4,0.7-0.8,1.2-1.2l94.4-68.5
	c1.8-1.3,4.3-1.3,6.1,0l30.6,22.2c2.3,1.7,2.8,4.9,1.2,7.3c-0.3,0.4-0.7,0.8-1.2,1.2l-52.2,37.9c-2.3,1.7-2.9,4.9-1.2,7.3
	C155.8,111.2,156.2,111.6,156.7,111.9z M226.7,70l46.1,33.5c2.3,1.7,2.8,4.9,1.2,7.3c-0.3,0.4-0.7,0.8-1.2,1.2l-46.1,33.5
	c-1.8,1.3-4.3,1.3-6.1,0l-46.1-33.5c-2.3-1.7-2.8-4.9-1.2-7.3c0.3-0.4,0.7-0.8,1.2-1.2L220.5,70C222.4,68.7,224.8,68.7,226.7,70
	L226.7,70z M387.1,103.4l-100.5-73c-2.3-1.7-2.8-4.9-1.2-7.3c0.3-0.4,0.7-0.8,1.2-1.2l11.2-8.2c1.8-1.3,4.3-1.3,6.1,0l123.4,89.6
	c2.3,1.7,2.8,4.9,1.2,7.3c-0.3,0.4-0.7,0.8-1.2,1.2l-123.4,89.6c-1.8,1.3-4.3,1.3-6.1,0l-11.2-8.2c-2.3-1.7-2.8-4.9-1.2-7.3
	c0.3-0.4,0.7-0.8,1.2-1.2l100.5-73c2.3-1.7,2.8-5,1.1-7.3C387.9,104.2,387.5,103.8,387.1,103.4L387.1,103.4z M60.1,111.9l100.5,73
	c2.3,1.7,2.8,4.9,1.2,7.3c-0.3,0.4-0.7,0.8-1.2,1.2l-11.2,8.2c-1.8,1.3-4.3,1.3-6.1,0L19.9,111.9c-2.3-1.7-2.8-4.9-1.2-7.3
	c0.3-0.4,0.7-0.8,1.2-1.2l123.4-89.6c1.8-1.3,4.3-1.3,6.1,0l11.2,8.2c2.3,1.7,2.8,4.9,1.2,7.3c-0.3,0.4-0.7,0.8-1.2,1.2l-100.5,73
	c-2.3,1.7-2.8,5-1.1,7.3C59.3,111.2,59.7,111.6,60.1,111.9L60.1,111.9z"/>
</svg>
